<?xml version="1.0" encoding="UTF-8"?>
<svg width="127px" height="40px" viewBox="0 0 127 40" version="1.1" xmlns="http://www.w3.org/2000/svg" xmlns:xlink="http://www.w3.org/1999/xlink">
    <!-- Generator: Sketch 53 (72520) - https://sketchapp.com -->
    <title>Group 12@2x</title>
    <desc>Created with Sketch.</desc>
    <defs>
        <polygon id="path-1" points="55 33.3157895 55 7 71.3430962 7 71.3430962 10.6095306 60.4067386 10.6095306 60.4067386 18.6109531 69.3945638 18.6109531 69.3945638 22.2382646 60.4067386 22.2382646 60.4067386 33.3157895"></polygon>
        <polygon id="path-2" points="76 33.3157895 76 7 81.2719665 7 81.2719665 33.3157895"></polygon>
        <path d="M86.0526134,32.4878412 L86.0526134,28.0144957 C88.8469822,29.188608 91.2379439,29.7756554 93.2255703,29.7756554 C94.6169087,29.7756554 95.7130097,29.4645203 96.5139062,28.8422407 C97.3148027,28.2199612 97.715245,27.374613 97.715245,26.3061708 C97.715245,25.46081 97.4638725,24.7475474 96.9611199,24.1663619 C96.4583674,23.5851763 95.5054902,22.8953956 94.1024598,22.0969993 L92.3662185,21.1283614 C90.0395264,19.8133557 88.3968363,18.5541391 87.4380989,17.350674 C86.4793615,16.1472089 86,14.7412305 86,13.1326966 C86,10.9840711 86.7862698,9.25815188 88.358833,7.95488722 C89.9313962,6.65162256 92.0096038,6 94.593518,6 C96.6629878,6 98.9954908,6.29939415 101.591097,6.89819142 L101.591097,11.0721398 C98.9370312,10.0741443 96.8383631,9.5751541 95.2950297,9.5751541 C94.1024539,9.5751541 93.1466538,9.84226064 92.4276007,10.3764817 C91.7085477,10.9107028 91.3490265,11.6122244 91.3490265,12.4810675 C91.3490265,13.197276 91.600399,13.8254167 92.1031516,14.3655084 C92.6059041,14.9056 93.5529354,15.5689635 94.9442739,16.3556188 L96.8032798,17.394703 C99.3053506,18.8036377 101.029883,20.1010124 101.976928,21.2868658 C102.923974,22.4727192 103.39749,23.9168557 103.39749,25.6193186 C103.39749,28.0379899 102.503071,29.9341529 100.714207,31.3078643 C98.9253437,32.6815757 96.4583856,33.3684211 93.3132592,33.3684211 C91.2320975,33.3684211 88.8119064,33.0748974 86.0526134,32.4878412 Z" id="path-3"></path>
    </defs>
    <g id="Page-1" stroke="none" stroke-width="1" fill="none" fill-rule="evenodd">
        <g id="内容页" transform="translate(-321.000000, -20.000000)">
            <g id="Group-4" transform="translate(-1.000000, 0.000000)">
                <g id="Group-12" transform="translate(322.000000, 20.000000)">
                    <g id="Path" fill-rule="nonzero" fill="#FFFFFF">
                        <use xlink:href="#path-1"></use>
                        <use xlink:href="#path-1"></use>
                    </g>
                    <g id="Path" fill-rule="nonzero" fill="#FFFFFF">
                        <use xlink:href="#path-2"></use>
                        <use xlink:href="#path-2"></use>
                    </g>
                    <g id="Path" fill-rule="nonzero" fill="#FFFFFF">
                        <use xlink:href="#path-3"></use>
                        <use xlink:href="#path-3"></use>
                    </g>
                    <path d="M40.5940971,24.75247 L40.593826,24.75247 L40.593826,15.24753 C36.779168,15.24753 33.6865073,12.1221696 33.6865073,8.26666819 C33.6865073,7.00497149 34.0176411,5.82154008 34.5971366,4.80021005 L26.293625,0 C25.1025101,2.09964669 22.8629629,3.51440362 20.2967549,3.51440362 C17.7305468,3.51440362 15.4910448,2.09960103 14.3002462,0 L5.99668941,4.80021005 C6.57595899,5.82131177 6.90749945,7.00497149 6.90731872,8.26666819 C6.90731872,12.1221696 3.81483876,15.24753 0,15.24753 L0,24.75247 C3.81488394,24.75247 6.90731872,27.8780587 6.90731872,31.7333318 C6.90731872,32.9950285 6.57623008,34.1784599 5.99668941,35.1999726 L14.3002462,40 C15.4910448,37.9003533 17.7308631,36.4858704 20.2967549,36.4858704 C22.8633244,36.4858704 25.1027812,37.9004446 26.293625,40 L26.3163512,39.9868949 C26.3163512,39.9868949 27.5802984,40.0594524 28.085335,38.1596242 C28.4510326,36.7838629 26.8053485,34.5250372 26.8053485,34.5250372 C25.3467603,33.0253483 22.4248849,32.0070777 20.2967549,32.0070777 C18.1661398,32.0070777 16.1480714,32.6432913 14.6892121,34.1461766 L10.8697196,32.0438359 C11.0499479,31.3703617 10.8989068,30.6720929 10.8989068,29.9686642 C10.8989068,26.2864514 8.40259419,22.9356104 5.03044191,22.0474318 L5.03044191,17.9527509 C8.40259419,17.0645723 10.8989068,13.7138682 10.8989068,10.0313358 C10.8989068,9.32772447 11.0499931,8.6296383 10.8697196,7.95634678 L14.6891669,5.85386903 C16.147981,7.35693697 18.1661398,7.99273968 20.2967097,7.99273968 C22.4274151,7.99273968 24.4455739,7.35689131 25.9045236,5.85386903 L29.7238353,7.95634678 C29.5435618,8.6296383 29.6946933,9.32790712 29.6946933,10.0313815 C29.6946933,13.7139596 32.1910059,17.0643896 35.5631582,17.9527965 L35.5631582,22.0474318 C32.1910059,22.9356104 29.7699202,26.2868624 29.6949192,29.9686642 C29.6092103,34.1759485 29.8665178,35.0320721 31.6274594,36.4073311 C32.8194327,37.338204 34.5974528,35.2000639 34.5974528,35.2000639 C34.0179122,34.1785056 33.6865976,32.9951198 33.6865976,31.7334231 C33.6865976,27.8778304 36.7792131,24.7525157 40.5941423,24.7525157 L40.5940971,24.75247 Z" id="Path" fill="#FFFFFF" fill-rule="nonzero"></path>
                    <ellipse id="Oval" stroke="#0DA9EE" stroke-width="4.21052632" cx="20.5355649" cy="19.5263158" rx="5.53556485" ry="5.52631579"></ellipse>
                    <path d="M116.61418,19.417352 C117.404979,19.3310029 118.127808,19.1552234 118.782688,18.8900082 C119.437569,18.6247931 119.999769,18.2855695 120.469306,17.8723273 C120.938843,17.4590851 121.303346,16.9780044 121.562827,16.4290707 C121.822308,15.8801371 121.952046,15.2726185 121.952046,14.6064967 C121.952046,14.1624155 121.862465,13.7522634 121.6833,13.376028 C121.504134,12.9997925 121.257013,12.6698205 120.941929,12.386102 C120.626845,12.1023834 120.249986,11.8803462 119.81134,11.7199836 C119.372693,11.5596209 118.887718,11.4794408 118.3564,11.4794408 C117.973357,11.4794408 117.574875,11.5472855 117.160941,11.682977 C116.747007,11.8186684 116.348524,12.0036995 115.965481,12.2380757 C115.582438,12.4724518 115.227202,12.7499984 114.899761,13.0707237 C114.572321,13.391449 114.309755,13.7306726 114.112055,14.0884046 L113.222411,13.7738487 C113.45718,13.1077269 113.766081,12.4847891 114.149124,11.9050164 C114.532167,11.3252438 114.989341,10.8194923 115.520659,10.3877467 C116.051977,9.95600113 116.657423,9.61677755 117.337016,9.37006579 C118.016609,9.12335403 118.76415,9 119.579661,9 C120.358104,9 121.087111,9.11410248 121.766704,9.34231086 C122.446297,9.57051923 123.039387,9.88507201 123.545992,10.2859786 C124.052598,10.6868852 124.451081,11.1648821 124.741452,11.7199836 C125.031823,12.275085 125.177007,12.8733521 125.177007,13.5148026 C125.177007,13.8355279 125.102871,14.1901708 124.954596,14.5787418 C124.806321,14.9673128 124.602446,15.3589618 124.342965,15.7537007 C124.083485,16.1484395 123.774583,16.5370047 123.416253,16.9194079 C123.057922,17.3018111 122.668706,17.6472024 122.248594,17.9555921 C122.816981,18.1652971 123.345202,18.4613468 123.833273,18.84375 C124.321345,19.2261532 124.747628,19.6671439 125.112137,20.1667352 C125.476646,20.6663265 125.763924,21.2029165 125.97398,21.7765214 C126.184036,22.3501262 126.289062,22.9206386 126.289062,23.4880757 C126.289062,24.73397 126.04812,25.8194855 125.566226,26.7446546 C125.084333,27.6698237 124.417107,28.4407864 123.564527,29.0575658 C122.711947,29.6743452 121.704929,30.1369228 120.543443,30.4453125 C119.381957,30.7537022 118.12164,30.9078947 116.762454,30.9078947 C115.600968,30.9078947 114.683532,30.7382829 114.010117,30.3990543 C113.336702,30.0598256 113,29.618835 113,29.0760691 C113,28.8170217 113.058691,28.604236 113.176075,28.4377056 C113.29346,28.2711752 113.444821,28.1385696 113.630165,28.0398849 C113.815508,27.9412002 114.013205,27.8702716 114.223261,27.827097 C114.433317,27.7839225 114.631014,27.7623355 114.816357,27.7623355 C115.100551,27.7623355 115.35385,27.7839225 115.576262,27.827097 C115.798674,27.8702716 115.99946,27.9257809 116.178625,27.9936266 C116.357791,28.0614724 116.521508,28.1385686 116.669783,28.2249178 C116.818058,28.3112669 116.960152,28.3976147 117.096071,28.4839638 C117.404977,28.6936688 117.710789,28.8725322 118.013517,29.0205592 C118.316244,29.1685863 118.702371,29.2425987 119.171908,29.2425987 C119.876213,29.2425987 120.497104,29.1284962 121.034601,28.9002878 C121.572097,28.6720795 122.020003,28.3667782 122.378334,27.984375 C122.736665,27.6019718 123.008498,27.1609811 123.193842,26.6613898 C123.379185,26.1617985 123.471855,25.6406277 123.471855,25.0978618 C123.471855,24.4070689 123.335939,23.7625441 123.064102,23.1642681 C122.792265,22.5659921 122.372159,22.0479052 121.803772,21.6099918 C121.235385,21.1720784 120.521824,20.8266871 119.663066,20.5738076 C118.804307,20.320928 117.788022,20.1944901 116.61418,20.1944901 L116.61418,19.417352 Z" id="3" fill="#FFFFFF" fill-rule="nonzero"></path>
                </g>
            </g>
        </g>
    </g>
</svg>